<?xml version="1.0" encoding="UTF-8" standalone="no" ?>
<!DOCTYPE svg PUBLIC "-//W3C//DTD SVG 1.1//EN" "http://www.w3.org/Graphics/SVG/1.1/DTD/svg11.dtd">
<svg xmlns="http://www.w3.org/2000/svg" xmlns:xlink="http://www.w3.org/1999/xlink" version="1.1" width="800" height="300" viewBox="0 0 800 300" xml:space="preserve">
<desc>Created with Fabric.js 5.2.4</desc>
<defs>
</defs>
<rect x="0" y="0" width="100%" height="100%" fill="transparent"></rect>
<g transform="matrix(1 0 0 1 400 150)" id="87958d81-93fc-47ba-bba5-11afe5c1eb6c"  >
<rect style="stroke: none; stroke-width: 1; stroke-dasharray: none; stroke-linecap: butt; stroke-dashoffset: 0; stroke-linejoin: miter; stroke-miterlimit: 4; fill: rgb(255,255,255); fill-rule: nonzero; opacity: 1; visibility: hidden;" vector-effect="non-scaling-stroke"  x="-400" y="-150" rx="0" ry="0" width="800" height="300" />
</g>
<g transform="matrix(Infinity NaN NaN Infinity 0 0)" id="dcae9d33-1f2d-4c67-8b16-e7d233b95c32"  >
</g>
<g transform="matrix(0.6 0 0 0.85 293.49 150)"  >
<g style="" vector-effect="non-scaling-stroke"   >
		<g transform="matrix(0.13 0 0 -0.13 -545.01 -0.05)"  >
<path style="stroke: none; stroke-width: 1; stroke-dasharray: none; stroke-linecap: butt; stroke-dashoffset: 0; stroke-linejoin: miter; stroke-miterlimit: 4; fill: rgb(255,0,0); fill-rule: nonzero; opacity: 1;" vector-effect="non-scaling-stroke"  transform=" translate(-605.37, -1004.1)" d="M 485 1540 C 384 1525 288 1455 252 1371 C 244 1351 237 1303 236 1265 C 236 1206 240 1185 265 1135 C 281 1102 293 1069 292 1062 C 286 1035 326 988 375 965 C 402 952 492 924 574 904 C 694 874 732 860 767 833 C 791 815 810 803 811 808 C 811 812 815 805 820 794 C 833 762 815 702 784 669 C 738 621 601 592 568 623 C 561 629 536 647 513 662 C 471 690 427 752 414 803 C 409 824 402 830 386 828 C 360 824 361 794 389 738 C 399 717 403 703 398 706 C 384 715 352 784 345 824 C 333 883 305 870 273 791 C 259 756 230 697 209 659 C 157 568 158 542 213 571 C 241 587 334 584 395 565 C 423 557 432 552 415 555 C 265 579 184 567 201 523 C 208 503 213 502 235 510 C 276 526 327 522 435 496 C 581 461 653 456 739 474 C 868 501 979 589 1019 695 C 1046 767 1047 869 1021 925 C 1000 971 927 1045 912 1036 C 907 1033 891 1039 877 1050 C 841 1079 779 1103 660 1135 C 570 1159 550 1168 522 1199 C 468 1259 457 1286 470 1326 C 484 1367 511 1387 566 1395 C 636 1407 759 1337 781 1272 C 788 1251 797 1241 805 1244 C 813 1247 820 1245 822 1240 C 824 1236 834 1230 844 1228 C 860 1226 874 1248 924 1353 C 973 1459 981 1483 969 1491 C 947 1505 945 1504 915 1439 C 899 1406 882 1376 878 1374 C 868 1368 894 1429 921 1474 C 933 1494 940 1513 937 1517 C 934 1520 909 1517 883 1510 C 841 1499 823 1500 745 1518 C 634 1543 551 1550 485 1540 z M 542 1445 C 443 1421 385 1331 421 1257 C 431 1236 431 1236 416 1254 C 396 1279 395 1342 414 1379 C 438 1425 501 1458 565 1458 C 586 1458 580 1455 542 1445 z M 537 974 C 534 971 525 970 518 973 C 510 976 513 979 524 979 C 535 980 541 977 537 974 z M 625 955 C 679 938 658 937 595 954 C 568 962 554 968 565 968 C 576 968 603 963 625 955 z M 710 930 C 728 918 712 918 685 930 C 672 936 670 939 680 939 C 688 939 702 935 710 930 z M 766 904 C 784 890 784 890 760 901 C 729 915 724 920 736 920 C 742 920 755 913 766 904 z M 988 811 C 983 718 956 665 884 601 C 816 541 745 518 635 519 C 586 519 533 523 518 527 C 501 532 543 535 623 535 C 748 535 758 537 807 562 C 916 620 970 701 978 818 C 980 857 985 890 988 890 C 990 890 991 855 988 811 z M 477 544 C 474 541 465 540 458 543 C 450 546 453 549 464 549 C 475 550 481 547 477 544 z" stroke-linecap="round" />
</g>
		<g transform="matrix(0.13 0 0 -0.13 -151.71 0.27)"  >
<path style="stroke: none; stroke-width: 1; stroke-dasharray: none; stroke-linecap: butt; stroke-dashoffset: 0; stroke-linejoin: miter; stroke-miterlimit: 4; fill: rgb(255,0,0); fill-rule: nonzero; opacity: 1;" vector-effect="non-scaling-stroke"  transform=" translate(-3555.1, -1001.65)" d="M 3257 1508 C 3241 1496 3240 1462 3242 990 L 3245 485 L 3330 485 L 3415 485 L 3418 715 L 3420 945 L 3458 983 C 3503 1030 3539 1050 3578 1050 C 3613 1050 3657 1018 3673 981 C 3679 966 3686 859 3689 720 L 3695 485 L 3780 485 L 3865 485 L 3868 735 C 3872 1013 3865 1066 3819 1128 C 3778 1184 3721 1210 3637 1210 C 3564 1210 3519 1196 3466 1155 L 3432 1129 L 3428 1314 C 3427 1415 3421 1502 3417 1506 C 3402 1521 3276 1523 3257 1508 z" stroke-linecap="round" />
</g>
		<g transform="matrix(0.13 0 0 -0.13 81.69 0.43)"  >
<path style="stroke: none; stroke-width: 1; stroke-dasharray: none; stroke-linecap: butt; stroke-dashoffset: 0; stroke-linejoin: miter; stroke-miterlimit: 4; fill: rgb(255,0,0); fill-rule: nonzero; opacity: 1;" vector-effect="non-scaling-stroke"  transform=" translate(-5305.62, -1000.48)" d="M 5227 1508 C 5211 1496 5210 1456 5212 990 L 5215 485 L 5293 482 C 5343 480 5377 483 5386 491 C 5398 501 5400 585 5400 1001 L 5400 1500 L 5374 1510 C 5338 1524 5247 1522 5227 1508 z" stroke-linecap="round" />
</g>
		<g transform="matrix(0.13 0 0 -0.13 158.95 1.84)"  >
<path style="stroke: none; stroke-width: 1; stroke-dasharray: none; stroke-linecap: butt; stroke-dashoffset: 0; stroke-linejoin: miter; stroke-miterlimit: 4; fill: rgb(255,0,0); fill-rule: nonzero; opacity: 1;" vector-effect="non-scaling-stroke"  transform=" translate(-5885.03, -989.93)" d="M 6060 1512 L 6035 1504 L 6032 1317 L 6030 1129 L 5997 1154 C 5914 1217 5802 1229 5712 1184 C 5611 1134 5560 1035 5552 873 C 5541 647 5606 515 5749 474 C 5840 447 5934 470 6014 540 C 6032 557 6050 570 6053 570 C 6056 570 6060 551 6062 528 L 6065 485 L 6134 482 C 6183 480 6206 483 6211 492 C 6222 509 6222 1481 6211 1498 C 6201 1514 6098 1523 6060 1512 z M 5938 1040 C 5939 1040 5961 1021 5985 999 L 6030 957 L 6030 840 L 6030 723 L 5981 677 C 5920 620 5873 608 5821 636 C 5771 664 5747 717 5742 816 C 5733 978 5803 1077 5905 1048 C 5921 1044 5936 1040 5938 1040 z" stroke-linecap="round" />
</g>
		<g transform="matrix(0.13 0 0 -0.13 -71.72 -52.17)"  >
<path style="stroke: none; stroke-width: 1; stroke-dasharray: none; stroke-linecap: butt; stroke-dashoffset: 0; stroke-linejoin: miter; stroke-miterlimit: 4; fill: rgb(255,0,0); fill-rule: nonzero; opacity: 1;" vector-effect="non-scaling-stroke"  transform=" translate(-4155, -1395)" d="M 4070 1470 C 4055 1455 4050 1437 4050 1395 C 4050 1319 4070 1300 4150 1300 C 4232 1300 4260 1326 4260 1400 C 4260 1472 4239 1490 4155 1490 C 4103 1490 4086 1486 4070 1470 z" stroke-linecap="round" />
</g>
		<g transform="matrix(0.13 0 0 -0.13 -255 5.65)"  >
<path style="stroke: none; stroke-width: 1; stroke-dasharray: none; stroke-linecap: butt; stroke-dashoffset: 0; stroke-linejoin: miter; stroke-miterlimit: 4; fill: rgb(255,0,0); fill-rule: nonzero; opacity: 1;" vector-effect="non-scaling-stroke"  transform=" translate(-2780.41, -961.29)" d="M 2670 1444 C 2625 1428 2566 1389 2542 1360 C 2501 1310 2486 1264 2486 1185 C 2486 1047 2537 984 2725 894 C 2857 831 2890 799 2890 738 C 2890 706 2883 691 2857 665 C 2796 604 2685 607 2555 671 C 2510 694 2487 701 2479 693 C 2474 688 2469 654 2468 619 C 2467 560 2469 554 2499 529 C 2559 480 2700 452 2810 469 C 2990 497 3092 603 3093 763 C 3094 903 3041 966 2844 1061 C 2747 1107 2715 1128 2700 1153 C 2672 1198 2675 1234 2709 1272 C 2737 1304 2741 1305 2812 1305 C 2871 1304 2897 1299 2947 1276 C 3028 1239 3040 1244 3040 1315 C 3040 1388 3029 1407 2972 1433 C 2908 1461 2735 1468 2670 1444 z" stroke-linecap="round" />
</g>
		<g transform="matrix(0.13 0 0 -0.13 276.82 5.16)"  >
<path style="stroke: none; stroke-width: 1; stroke-dasharray: none; stroke-linecap: butt; stroke-dashoffset: 0; stroke-linejoin: miter; stroke-miterlimit: 4; fill: rgb(255,0,0); fill-rule: nonzero; opacity: 1;" vector-effect="non-scaling-stroke"  transform=" translate(-6769.04, -965)" d="M 6438 1439 C 6421 1430 6420 1396 6420 961 C 6420 543 6422 491 6436 486 C 6445 483 6485 480 6525 480 C 6588 480 6601 483 6610 499 C 6616 511 6620 606 6620 737 L 6620 955 L 6683 857 C 6717 803 6786 697 6835 622 L 6925 485 L 7020 485 C 7115 485 7115 485 7118 511 C 7120 530 7084 593 6971 764 C 6888 889 6820 996 6820 1001 C 6820 1007 6883 1093 6959 1194 C 7035 1295 7101 1388 7105 1401 C 7116 1436 7088 1450 7003 1450 C 6946 1450 6926 1446 6913 1432 C 6903 1422 6834 1326 6760 1219 L 6625 1023 L 6620 1227 C 6616 1393 6612 1433 6600 1440 C 6580 1453 6460 1452 6438 1439 z" stroke-linecap="round" />
</g>
		<g transform="matrix(0.13 0 0 -0.13 4.64 22.3)"  >
<path style="stroke: none; stroke-width: 1; stroke-dasharray: none; stroke-linecap: butt; stroke-dashoffset: 0; stroke-linejoin: miter; stroke-miterlimit: 4; fill: rgb(255,0,0); fill-rule: nonzero; opacity: 1;" vector-effect="non-scaling-stroke"  transform=" translate(-4727.7, -836.44)" d="M 4630 1201 C 4537 1172 4466 1105 4428 1011 C 4408 963 4405 936 4405 825 C 4405 706 4407 690 4431 640 C 4462 575 4510 524 4565 500 C 4659 457 4798 452 4930 487 C 5006 507 5020 522 5020 587 C 5020 652 5010 658 4943 634 C 4916 624 4854 615 4800 613 C 4722 610 4699 612 4670 627 C 4631 647 4590 716 4590 762 L 4590 790 L 4803 790 C 5064 790 5055 785 5048 912 C 5037 1109 4930 1211 4737 1209 C 4692 1209 4644 1205 4630 1201 z M 4801 1064 C 4834 1047 4869 982 4870 938 L 4870 910 L 4730 910 C 4591 910 4590 910 4590 933 C 4591 973 4628 1039 4662 1060 C 4702 1084 4760 1086 4801 1064 z" stroke-linecap="round" />
</g>
		<g transform="matrix(0.13 0 0 -0.13 375.49 22.28)"  >
<path style="stroke: none; stroke-width: 1; stroke-dasharray: none; stroke-linecap: butt; stroke-dashoffset: 0; stroke-linejoin: miter; stroke-miterlimit: 4; fill: rgb(255,0,0); fill-rule: nonzero; opacity: 1;" vector-effect="non-scaling-stroke"  transform=" translate(-7509.09, -836.57)" d="M 7370 1192 C 7303 1170 7269 1152 7253 1131 C 7235 1107 7237 1045 7258 1021 L 7275 1001 L 7345 1032 C 7426 1068 7522 1080 7571 1060 C 7606 1045 7630 1000 7630 947 L 7630 913 L 7534 906 C 7405 897 7350 884 7296 850 C 7237 812 7210 760 7210 681 C 7210 610 7222 575 7258 537 C 7341 449 7499 440 7609 515 L 7659 549 L 7662 517 L 7665 485 L 7735 485 L 7805 485 L 7808 753 C 7809 917 7806 1037 7800 1060 C 7786 1110 7748 1155 7696 1183 C 7638 1213 7451 1218 7370 1192 z M 7630 732 C 7630 681 7626 670 7603 648 C 7562 610 7537 600 7485 600 C 7367 600 7354 747 7470 779 C 7489 784 7533 789 7568 789 L 7630 790 L 7630 732 z" stroke-linecap="round" />
</g>
		<g transform="matrix(0.13 0 0 -0.13 469.52 21.07)"  >
<path style="stroke: none; stroke-width: 1; stroke-dasharray: none; stroke-linecap: butt; stroke-dashoffset: 0; stroke-linejoin: miter; stroke-miterlimit: 4; fill: rgb(255,0,0); fill-rule: nonzero; opacity: 1;" vector-effect="non-scaling-stroke"  transform=" translate(-8214.36, -845.64)" d="M 8265 1192 C 8248 1182 8221 1157 8203 1137 L 8172 1101 L 8165 1143 C 8161 1166 8152 1188 8146 1192 C 8128 1204 8025 1201 8012 1188 C 7993 1169 7995 507 8014 491 C 8023 483 8057 480 8107 482 L 8185 485 L 8188 707 L 8190 928 L 8235 978 C 8286 1035 8321 1048 8376 1030 C 8424 1014 8430 1024 8430 1117 C 8430 1178 8427 1191 8411 1200 C 8379 1216 8298 1212 8265 1192 z" stroke-linecap="round" />
</g>
		<g transform="matrix(0.13 0 0 -0.13 556.28 22.2)"  >
<path style="stroke: none; stroke-width: 1; stroke-dasharray: none; stroke-linecap: butt; stroke-dashoffset: 0; stroke-linejoin: miter; stroke-miterlimit: 4; fill: rgb(255,0,0); fill-rule: nonzero; opacity: 1;" vector-effect="non-scaling-stroke"  transform=" translate(-8865, -837.19)" d="M 8745 1197 C 8677 1174 8644 1153 8597 1100 C 8532 1028 8515 971 8515 830 C 8515 680 8533 626 8605 553 C 8672 487 8736 465 8865 467 C 8983 468 9052 493 9120 560 C 9193 634 9214 696 9215 845 C 9215 986 9198 1047 9138 1115 C 9081 1180 9017 1203 8890 1207 C 8822 1209 8771 1205 8745 1197 z M 8932 1054 C 8964 1045 9008 983 9019 930 C 9054 765 8999 632 8888 615 C 8819 605 8760 634 8731 692 C 8684 790 8694 947 8753 1015 C 8796 1064 8851 1076 8932 1054 z" stroke-linecap="round" />
</g>
		<g transform="matrix(0.13 0 0 -0.13 -71.64 21.75)"  >
<path style="stroke: none; stroke-width: 1; stroke-dasharray: none; stroke-linecap: butt; stroke-dashoffset: 0; stroke-linejoin: miter; stroke-miterlimit: 4; fill: rgb(255,0,0); fill-rule: nonzero; opacity: 1;" vector-effect="non-scaling-stroke"  transform=" translate(-4155.62, -840.55)" d="M 4077 1188 C 4061 1176 4060 1145 4062 830 L 4065 485 L 4135 482 C 4173 480 4215 482 4227 485 L 4250 490 L 4250 835 C 4250 1165 4249 1180 4231 1190 C 4204 1204 4097 1203 4077 1188 z" stroke-linecap="round" />
</g>
</g>
</g>
</svg>