<?xml version="1.0" standalone="no"?>
<!DOCTYPE svg PUBLIC "-//W3C//DTD SVG 20010904//EN"
 "http://www.w3.org/TR/2001/REC-SVG-20010904/DTD/svg10.dtd">
<svg version="1.0" xmlns="http://www.w3.org/2000/svg"
 width="983.000000pt" height="581.000000px" viewBox="0 0 983.000000 181.000000"
 preserveAspectRatio="xMidYMid meet">

<g transform="translate(0.000000,181.000000) scale(0.100000,-0.100000)"
fill="red" stroke="none">
<path d="M485 1540 c-101 -15 -197 -85 -233 -169 -8 -20 -15 -68 -16 -106 0
-59 4 -80 29 -130 16 -33 28 -66 27 -73 -6 -27 34 -74 83 -97 27 -13 117 -41
199 -61 120 -30 158 -44 193 -71 24 -18 43 -30 44 -25 0 4 4 -3 9 -14 13 -32
-5 -92 -36 -125 -46 -48 -183 -77 -216 -46 -7 6 -32 24 -55 39 -42 28 -86 90
-99 141 -5 21 -12 27 -28 25 -26 -4 -25 -34 3 -90 10 -21 14 -35 9 -32 -14 9
-46 78 -53 118 -12 59 -40 46 -72 -33 -14 -35 -43 -94 -64 -132 -52 -91 -51
-117 4 -88 28 16 121 13 182 -6 28 -8 37 -13 20 -10 -150 24 -231 12 -214 -32
7 -20 12 -21 34 -13 41 16 92 12 200 -14 146 -35 218 -40 304 -22 129 27 240
115 280 221 27 72 28 174 2 230 -21 46 -94 120 -109 111 -5 -3 -21 3 -35 14
-36 29 -98 53 -217 85 -90 24 -110 33 -138 64 -54 60 -65 87 -52 127 14 41 41
61 96 69 70 12 193 -58 215 -123 7 -21 16 -31 24 -28 8 3 15 1 17 -4 2 -4 12
-10 22 -12 16 -2 30 20 80 125 49 106 57 130 45 138 -22 14 -24 13 -54 -52
-16 -33 -33 -63 -37 -65 -10 -6 16 55 43 100 12 20 19 39 16 43 -3 3 -28 0
-54 -7 -42 -11 -60 -10 -138 8 -111 25 -194 32 -260 22z m57 -95 c-99 -24
-157 -114 -121 -188 10 -21 10 -21 -5 -3 -20 25 -21 88 -2 125 24 46 87 79
151 79 21 0 15 -3 -23 -13z m-5 -471 c-3 -3 -12 -4 -19 -1 -8 3 -5 6 6 6 11 1
17 -2 13 -5z m88 -19 c54 -17 33 -18 -30 -1 -27 8 -41 14 -30 14 11 0 38 -5
60 -13z m85 -25 c18 -12 2 -12 -25 0 -13 6 -15 9 -5 9 8 0 22 -4 30 -9z m56
-26 c18 -14 18 -14 -6 -3 -31 14 -36 19 -24 19 6 0 19 -7 30 -16z m222 -93
c-5 -93 -32 -146 -104 -210 -68 -60 -139 -83 -249 -82 -49 0 -102 4 -117 8
-17 5 25 8 105 8 125 0 135 2 184 27 109 58 163 139 171 256 2 39 7 72 10 72
2 0 3 -35 0 -79z m-511 -267 c-3 -3 -12 -4 -19 -1 -8 3 -5 6 6 6 11 1 17 -2
13 -5z"/>
<path d="M3257 1508 c-16 -12 -17 -46 -15 -518 l3 -505 85 0 85 0 3 230 2 230
38 38 c45 47 81 67 120 67 35 0 79 -32 95 -69 6 -15 13 -122 16 -261 l6 -235
85 0 85 0 3 250 c4 278 -3 331 -49 393 -41 56 -98 82 -182 82 -73 0 -118 -14
-171 -55 l-34 -26 -4 185 c-1 101 -7 188 -11 192 -15 15 -141 17 -160 2z"/>
<path d="M5227 1508 c-16 -12 -17 -52 -15 -518 l3 -505 78 -3 c50 -2 84 1 93
9 12 10 14 94 14 510 l0 499 -26 10 c-36 14 -127 12 -147 -2z"/>
<path d="M6060 1512 l-25 -8 -3 -187 -2 -188 -33 25 c-83 63 -195 75 -285 30
-101 -50 -152 -149 -160 -311 -11 -226 54 -358 197 -399 91 -27 185 -4 265 66
18 17 36 30 39 30 3 0 7 -19 9 -42 l3 -43 69 -3 c49 -2 72 1 77 10 11 17 11
989 0 1006 -10 16 -113 25 -151 14z m-122 -472 c1 0 23 -19 47 -41 l45 -42 0
-117 0 -117 -49 -46 c-61 -57 -108 -69 -160 -41 -50 28 -74 81 -79 180 -9 162
61 261 163 232 16 -4 31 -8 33 -8z"/>
<path d="M4070 1470 c-15 -15 -20 -33 -20 -75 0 -76 20 -95 100 -95 82 0 110
26 110 100 0 72 -21 90 -105 90 -52 0 -69 -4 -85 -20z"/>
<path d="M2670 1444 c-45 -16 -104 -55 -128 -84 -41 -50 -56 -96 -56 -175 0
-138 51 -201 239 -291 132 -63 165 -95 165 -156 0 -32 -7 -47 -33 -73 -61 -61
-172 -58 -302 6 -45 23 -68 30 -76 22 -5 -5 -10 -39 -11 -74 -1 -59 1 -65 31
-90 60 -49 201 -77 311 -60 180 28 282 134 283 294 1 140 -52 203 -249 298
-97 46 -129 67 -144 92 -28 45 -25 81 9 119 28 32 32 33 103 33 59 -1 85 -6
135 -29 81 -37 93 -32 93 39 0 73 -11 92 -68 118 -64 28 -237 35 -302 11z"/>
<path d="M6438 1439 c-17 -9 -18 -43 -18 -478 0 -418 2 -470 16 -475 9 -3 49
-6 89 -6 63 0 76 3 85 19 6 12 10 107 10 238 l0 218 63 -98 c34 -54 103 -160
152 -235 l90 -137 95 0 c95 0 95 0 98 26 2 19 -34 82 -147 253 -83 125 -151
232 -151 237 0 6 63 92 139 193 76 101 142 194 146 207 11 35 -17 49 -102 49
-57 0 -77 -4 -90 -18 -10 -10 -79 -106 -153 -213 l-135 -196 -5 204 c-4 166
-8 206 -20 213 -20 13 -140 12 -162 -1z"/>
<path d="M4630 1201 c-93 -29 -164 -96 -202 -190 -20 -48 -23 -75 -23 -186 0
-119 2 -135 26 -185 31 -65 79 -116 134 -140 94 -43 233 -48 365 -13 76 20 90
35 90 100 0 65 -10 71 -77 47 -27 -10 -89 -19 -143 -21 -78 -3 -101 -1 -130
14 -39 20 -80 89 -80 135 l0 28 213 0 c261 0 252 -5 245 122 -11 197 -118 299
-311 297 -45 0 -93 -4 -107 -8z m171 -137 c33 -17 68 -82 69 -126 l0 -28 -140
0 c-139 0 -140 0 -140 23 1 40 38 106 72 127 40 24 98 26 139 4z"/>
<path d="M7370 1192 c-67 -22 -101 -40 -117 -61 -18 -24 -16 -86 5 -110 l17
-20 70 31 c81 36 177 48 226 28 35 -15 59 -60 59 -113 l0 -34 -96 -7 c-129 -9
-184 -22 -238 -56 -59 -38 -86 -90 -86 -169 0 -71 12 -106 48 -144 83 -88 241
-97 351 -22 l50 34 3 -32 3 -32 70 0 70 0 3 268 c1 164 -2 284 -8 307 -14 50
-52 95 -104 123 -58 30 -245 35 -326 9z m260 -460 c0 -51 -4 -62 -27 -84 -41
-38 -66 -48 -118 -48 -118 0 -131 147 -15 179 19 5 63 10 98 10 l62 1 0 -58z"/>
<path d="M8265 1192 c-17 -10 -44 -35 -62 -55 l-31 -36 -7 42 c-4 23 -13 45
-19 49 -18 12 -121 9 -134 -4 -19 -19 -17 -681 2 -697 9 -8 43 -11 93 -9 l78
3 3 222 2 221 45 50 c51 57 86 70 141 52 48 -16 54 -6 54 87 0 61 -3 74 -19
83 -32 16 -113 12 -146 -8z"/>
<path d="M8745 1197 c-68 -23 -101 -44 -148 -97 -65 -72 -82 -129 -82 -270 0
-150 18 -204 90 -277 67 -66 131 -88 260 -86 118 1 187 26 255 93 73 74 94
136 95 285 0 141 -17 202 -77 270 -57 65 -121 88 -248 92 -68 2 -119 -2 -145
-10z m187 -143 c32 -9 76 -71 87 -124 35 -165 -20 -298 -131 -315 -69 -10
-128 19 -157 77 -47 98 -37 255 22 323 43 49 98 61 179 39z"/>
<path d="M4077 1188 c-16 -12 -17 -43 -15 -358 l3 -345 70 -3 c38 -2 80 0 92
3 l23 5 0 345 c0 330 -1 345 -19 355 -27 14 -134 13 -154 -2z"/>
</g>
</svg>
